<mxfile host="app.diagrams.net" modified="2023-09-23T03:59:46.560Z" agent="Mozilla/5.0 (Macintosh; Intel Mac OS X 10_15_7) AppleWebKit/537.36 (KHTML, like Gecko) Chrome/116.0.0.0 Safari/537.36" etag="Sq2mdtP8eLiB9W9KND8Y" version="21.8.1" type="github">
  <diagram name="第 1 页" id="MbxOoqtZ7Hn48RZWdAmM">
    <mxGraphModel dx="954" dy="507" grid="1" gridSize="10" guides="1" tooltips="1" connect="1" arrows="1" fold="1" page="1" pageScale="1" pageWidth="1169" pageHeight="1654" math="0" shadow="0">
      <root>
        <mxCell id="0" />
        <mxCell id="1" parent="0" />
        <mxCell id="I38lf3dLwbqJbFCn92dI-1" value="input" style="rhombus;whiteSpace=wrap;html=1;fontSize=18;" vertex="1" parent="1">
          <mxGeometry x="110" y="230" width="80" height="40" as="geometry" />
        </mxCell>
        <mxCell id="I38lf3dLwbqJbFCn92dI-2" value="W1(d, h)" style="rounded=0;whiteSpace=wrap;html=1;fontSize=18;" vertex="1" parent="1">
          <mxGeometry x="260" y="220" width="120" height="60" as="geometry" />
        </mxCell>
        <mxCell id="I38lf3dLwbqJbFCn92dI-3" value="W3(d, h)" style="rounded=0;whiteSpace=wrap;html=1;fontSize=18;" vertex="1" parent="1">
          <mxGeometry x="260" y="320" width="120" height="60" as="geometry" />
        </mxCell>
        <mxCell id="I38lf3dLwbqJbFCn92dI-4" value="SiLU" style="rounded=0;whiteSpace=wrap;html=1;fontSize=18;" vertex="1" parent="1">
          <mxGeometry x="430" y="220" width="70" height="60" as="geometry" />
        </mxCell>
        <mxCell id="I38lf3dLwbqJbFCn92dI-5" value="W2(h, d)" style="rounded=0;whiteSpace=wrap;html=1;fontSize=18;" vertex="1" parent="1">
          <mxGeometry x="585" y="220" width="80" height="120" as="geometry" />
        </mxCell>
        <mxCell id="I38lf3dLwbqJbFCn92dI-6" value="" style="endArrow=classic;html=1;rounded=0;entryX=0;entryY=0.5;entryDx=0;entryDy=0;" edge="1" parent="1" source="I38lf3dLwbqJbFCn92dI-1" target="I38lf3dLwbqJbFCn92dI-2">
          <mxGeometry width="50" height="50" relative="1" as="geometry">
            <mxPoint x="460" y="290" as="sourcePoint" />
            <mxPoint x="510" y="240" as="targetPoint" />
          </mxGeometry>
        </mxCell>
        <mxCell id="I38lf3dLwbqJbFCn92dI-7" value="" style="endArrow=classic;html=1;rounded=0;entryX=0;entryY=0.5;entryDx=0;entryDy=0;" edge="1" parent="1" target="I38lf3dLwbqJbFCn92dI-3">
          <mxGeometry width="50" height="50" relative="1" as="geometry">
            <mxPoint x="220" y="250" as="sourcePoint" />
            <mxPoint x="500" y="325" as="targetPoint" />
            <Array as="points">
              <mxPoint x="220" y="350" />
            </Array>
          </mxGeometry>
        </mxCell>
        <mxCell id="I38lf3dLwbqJbFCn92dI-10" value="" style="endArrow=classic;html=1;rounded=0;exitX=1;exitY=0.5;exitDx=0;exitDy=0;entryX=0;entryY=0.5;entryDx=0;entryDy=0;" edge="1" parent="1" source="I38lf3dLwbqJbFCn92dI-2" target="I38lf3dLwbqJbFCn92dI-4">
          <mxGeometry width="50" height="50" relative="1" as="geometry">
            <mxPoint x="450" y="360" as="sourcePoint" />
            <mxPoint x="500" y="310" as="targetPoint" />
          </mxGeometry>
        </mxCell>
        <mxCell id="I38lf3dLwbqJbFCn92dI-11" value="" style="endArrow=classic;html=1;rounded=0;exitX=1;exitY=0.5;exitDx=0;exitDy=0;entryX=0;entryY=0.25;entryDx=0;entryDy=0;" edge="1" parent="1" source="I38lf3dLwbqJbFCn92dI-4" target="I38lf3dLwbqJbFCn92dI-5">
          <mxGeometry width="50" height="50" relative="1" as="geometry">
            <mxPoint x="460" y="360" as="sourcePoint" />
            <mxPoint x="580" y="250" as="targetPoint" />
          </mxGeometry>
        </mxCell>
        <mxCell id="I38lf3dLwbqJbFCn92dI-12" value="" style="endArrow=classic;html=1;rounded=0;exitX=1;exitY=0.5;exitDx=0;exitDy=0;" edge="1" parent="1" source="I38lf3dLwbqJbFCn92dI-3">
          <mxGeometry width="50" height="50" relative="1" as="geometry">
            <mxPoint x="480" y="380" as="sourcePoint" />
            <mxPoint x="540" y="250" as="targetPoint" />
            <Array as="points">
              <mxPoint x="540" y="350" />
            </Array>
          </mxGeometry>
        </mxCell>
        <mxCell id="I38lf3dLwbqJbFCn92dI-13" value="·" style="ellipse;whiteSpace=wrap;html=1;fontSize=18;fontStyle=1" vertex="1" parent="1">
          <mxGeometry x="530" y="240" width="20" height="20" as="geometry" />
        </mxCell>
        <mxCell id="I38lf3dLwbqJbFCn92dI-14" value="output" style="rhombus;whiteSpace=wrap;html=1;fontSize=18;" vertex="1" parent="1">
          <mxGeometry x="700" y="230" width="80" height="40" as="geometry" />
        </mxCell>
        <mxCell id="I38lf3dLwbqJbFCn92dI-15" value="" style="endArrow=classic;html=1;rounded=0;exitX=1;exitY=0.25;exitDx=0;exitDy=0;entryX=0;entryY=0.5;entryDx=0;entryDy=0;" edge="1" parent="1" source="I38lf3dLwbqJbFCn92dI-5" target="I38lf3dLwbqJbFCn92dI-14">
          <mxGeometry width="50" height="50" relative="1" as="geometry">
            <mxPoint x="460" y="290" as="sourcePoint" />
            <mxPoint x="510" y="240" as="targetPoint" />
          </mxGeometry>
        </mxCell>
      </root>
    </mxGraphModel>
  </diagram>
</mxfile>
